<?xml version="1.0" encoding="UTF-8"?>
<!-- Generator: Adobe Illustrator 26.0.1, SVG Export Plug-In . SVG Version: 6.00 Build 0)  -->
<svg version="1.1" id="Layer_1" xmlns="http://www.w3.org/2000/svg" xmlns:xlink="http://www.w3.org/1999/xlink" x="0px" y="0px" viewBox="0 0 700 700" style="enable-background:new 0 0 700 700;" xml:space="preserve">
<style type="text/css">
	.st0{fill-rule:evenodd;clip-rule:evenodd;fill:#FFFFFF;}
	.st1{fill:#FFFFFF;}
</style>
<g>
	<path class="st0" d="M224.4,388.6v-77.2h51.5l77.2-51.5v180.2l-77.2-51.5L224.4,388.6z"/>
</g>
<g>
	<path class="st1" d="M408.2,318.2c-3.8-3-9.4-2.6-12.7,1.3c-3.2,4-2.5,9.6,1.5,12.8c5.1,4.2,8.3,10.6,8.3,17.6   c0,7.6-3.6,14.2-9.3,18.3c-3.6,2.6-4.2,7.9-1.3,11.3l0.8,0.8c3,3.6,8.7,4.3,12.3,1.5c9.4-7.4,15.5-19.1,15.5-31.9   C423.3,337.1,417.5,325.7,408.2,318.2L408.2,318.2z"/>
	<path class="st1" d="M428.8,292.9c-3.8-3-9.3-2.3-12.5,1.3c-3,3.8-2.6,9.4,1.1,12.5c12.5,10.4,20.6,25.9,20.6,43.3   s-8.1,33.1-20.6,43.3c-3.8,3-4.2,8.7-1.1,12.5c3,3.8,8.7,4.5,12.5,1.5c16.6-13.4,27.4-34,27.4-57.1   C456,326.9,445.4,306.3,428.8,292.9L428.8,292.9z"/>
</g>
</svg>